<?xml version="1.0" standalone="no"?>
<!DOCTYPE svg PUBLIC "-//W3C//DTD SVG 20010904//EN"
 "http://www.w3.org/TR/2001/REC-SVG-20010904/DTD/svg10.dtd">
<svg version="1.0" xmlns="http://www.w3.org/2000/svg"
 width="640.000000pt" height="640.000000pt" viewBox="0 0 640.000000 640.000000"
 preserveAspectRatio="xMidYMid meet">
<metadata>
Created by potrace 1.14, written by Peter Selinger 2001-2017
</metadata>
<g transform="translate(0.000000,640.000000) scale(0.100000,-0.100000)"
fill="#000000" stroke="none">
<path d="M245 5751 c-70 -17 -185 -96 -185 -127 0 -7 -4 -14 -10 -16 -5 -1
-19 -29 -30 -60 -19 -55 -20 -82 -20 -740 0 -448 4 -697 11 -723 17 -66 37
-102 82 -147 70 -70 154 -102 264 -98 24 0 51 1 61 0 57 -1 117 2 124 6 4 3 8
2 8 -3 0 -4 30 -7 67 -6 86 2 115 3 182 4 30 0 58 2 63 5 4 3 8 2 8 -3 0 -4
35 -7 77 -6 109 4 112 4 170 3 28 0 55 0 60 1 4 1 13 0 18 -1 6 -1 26 -1 46 0
l36 1 238 -418 c131 -230 244 -427 249 -438 6 -11 13 -22 16 -25 3 -3 13 -21
24 -40 49 -93 191 -337 203 -350 10 -11 13 -11 13 -1 0 30 159 200 188 201 6
0 12 4 12 9 0 9 128 69 163 75 12 3 22 5 22 6 0 3 43 11 87 15 57 5 73 12 60
28 -5 7 -83 140 -172 297 -90 157 -214 374 -276 483 -63 109 -114 202 -114
207 0 5 -3 10 -7 12 -5 2 -20 26 -34 53 -20 36 -27 66 -28 108 0 33 -3 63 -6
67 -3 5 -1 11 3 14 5 3 6 26 2 51 -4 25 -4 45 -1 45 5 0 5 129 0 156 -1 5 -1
25 0 45 1 33 4 37 31 41 17 3 32 2 35 0 8 -8 85 -7 85 1 0 5 4 6 9 3 10 -7 81
-8 179 -4 34 2 62 1 62 -2 0 -4 30 -4 125 0 11 1 67 1 125 1 58 -1 133 0 168
1 34 2 62 1 62 -2 0 -3 26 -4 57 -2 51 2 94 2 136 1 6 0 28 0 47 1 19 0 61 -1
93 -2 31 -2 57 1 57 5 0 5 4 6 9 3 5 -4 33 -6 63 -6 29 0 62 0 73 0 11 0 36 0
55 1 19 0 44 0 55 0 87 -5 135 -5 135 0 0 3 20 3 45 -1 24 -4 50 -3 57 1 6 4
16 5 20 3 5 -3 54 -5 111 -4 56 0 111 1 122 0 62 -1 120 2 127 6 4 3 8 1 8 -4
0 -8 21 -8 75 3 22 4 20 -19 15 295 -1 47 -1 87 0 90 5 23 3 220 -2 220 -4 0
-5 7 -1 16 5 13 -1 15 -28 14 -19 -1 -38 -1 -44 0 -5 0 -82 1 -170 0 -88 0
-167 -1 -175 0 -51 1 -115 -2 -122 -6 -4 -3 -8 -2 -8 3 0 4 -30 7 -67 6 -86
-2 -115 -3 -182 -4 -30 0 -58 -2 -63 -5 -4 -3 -8 -2 -8 3 0 4 -30 7 -67 6 -86
-2 -115 -3 -182 -4 -30 0 -58 -2 -63 -5 -4 -3 -8 -2 -8 3 0 4 -30 7 -67 6 -86
-2 -115 -3 -182 -4 -30 0 -58 -2 -63 -5 -4 -3 -8 0 -8 6 0 6 -4 9 -8 6 -10 -6
-131 -8 -285 -4 -59 2 -107 0 -107 -3 0 -3 -22 -3 -48 1 -27 3 -60 3 -73 0
-13 -4 -33 -4 -44 0 -11 4 -34 4 -52 -1 -18 -4 -33 -4 -33 0 0 3 -17 6 -37 6
l-38 0 0 63 c0 34 -3 62 -7 62 -4 0 -4 10 1 22 4 12 5 36 1 54 -4 18 -4 37 -1
43 13 20 -10 165 -32 210 -29 59 -92 121 -152 151 l-50 25 -705 2 c-388 1
-718 -2 -735 -6z"/>
<path d="M4690 5739 c-97 -34 -188 -141 -205 -239 -8 -47 -11 -140 -5 -140 3
0 4 -28 2 -62 -4 -110 -3 -308 2 -316 3 -4 1 -14 -3 -20 -4 -7 -5 -33 -1 -57
4 -25 4 -45 1 -45 -3 0 -5 -28 -3 -62 1 -35 2 -79 1 -98 0 -19 0 -44 1 -55 1
-11 1 -27 1 -35 0 -8 0 -40 0 -70 0 -30 1 -61 0 -67 -2 -90 -1 -124 3 -132 4
-5 3 -12 -2 -15 -5 -3 -6 -28 -2 -56 4 -28 4 -53 0 -55 -11 -7 12 -149 31
-190 30 -64 120 -152 162 -159 7 -1 18 -5 24 -9 24 -15 213 -24 233 -12 5 3
11 1 14 -3 3 -5 26 -6 51 -2 25 4 45 4 45 1 0 -3 32 -4 71 -1 39 3 75 3 80 -1
6 -3 28 -3 49 1 22 4 42 5 44 2 7 -6 115 -6 121 0 3 3 26 2 50 -2 25 -4 48 -4
50 0 3 4 22 4 42 1 21 -4 55 -4 75 -1 20 4 42 4 48 0 6 -4 29 -4 50 0 22 4 42
5 44 2 7 -6 115 -6 121 0 3 3 26 2 50 -2 25 -4 48 -3 51 2 3 4 9 6 14 3 13 -8
80 -8 130 -1 109 17 214 105 250 210 19 58 20 83 20 740 0 682 -2 718 -36 793
-21 47 -92 115 -149 143 l-50 25 -710 2 c-682 2 -712 1 -765 -18z"/>
<path d="M2639 2566 c-3 -3 -34 -6 -69 -7 -66 -1 -172 -31 -178 -49 -2 -6 -9
-10 -16 -10 -18 0 -82 -76 -105 -125 -11 -23 -22 -60 -26 -83 -7 -50 -10 -291
-3 -297 3 -3 2 -24 -1 -48 -4 -23 -4 -59 0 -80 3 -21 3 -40 -1 -42 -4 -2 -4
-25 0 -50 4 -24 5 -47 3 -49 -8 -8 -8 -216 0 -216 5 0 6 -4 3 -8 -4 -7 -7 -66
-6 -124 1 -34 1 -193 0 -213 0 -11 -2 -44 -3 -73 -1 -28 0 -52 3 -52 3 0 5
-37 6 -83 1 -64 6 -93 25 -132 29 -61 90 -122 155 -155 l49 -25 704 -3 c688
-3 705 -2 765 18 102 34 193 138 211 240 8 47 11 140 5 140 -3 0 -4 28 -3 62
7 181 7 268 0 268 -5 0 -6 4 -3 8 4 7 7 71 6 122 -1 8 0 88 1 178 1 90 -1 165
-3 168 -3 2 -2 23 1 47 4 23 4 59 0 80 -3 21 -3 40 1 42 4 2 4 25 0 50 -4 24
-5 47 -2 50 6 6 3 135 -4 185 -8 54 -45 120 -92 167 -66 66 -141 94 -247 93
-27 0 -59 -1 -70 0 -64 1 -120 -2 -127 -6 -4 -3 -8 -2 -8 3 0 4 -30 7 -67 6
-86 -2 -115 -3 -182 -4 -30 0 -58 -2 -63 -5 -4 -3 -8 -2 -8 3 0 4 -30 7 -67 6
-86 -2 -115 -3 -182 -4 -30 0 -58 -2 -63 -5 -4 -3 -8 -2 -8 3 0 4 -30 7 -67 6
-86 -2 -115 -3 -182 -4 -30 0 -58 -2 -62 -5 -4 -2 -9 1 -11 7 -2 5 -6 8 -9 5z"/>
</g>
</svg>
